<?xml version="1.0" standalone="no"?>
<!DOCTYPE svg PUBLIC "-//W3C//DTD SVG 20010904//EN"
 "http://www.w3.org/TR/2001/REC-SVG-20010904/DTD/svg10.dtd">
<svg version="1.0" xmlns="http://www.w3.org/2000/svg"
 width="400.000000pt" height="400.000000pt" viewBox="0 0 400.000000 400.000000"
 preserveAspectRatio="xMidYMid meet">

<g transform="translate(0.000000,400.000000) scale(0.100000,-0.100000)"
fill="#000000" stroke="none">
<path d="M2713 3961 c-48 -22 -83 -58 -100 -104 -8 -21 -12 -120 -12 -294 l-1
-263 -37 -47 c-45 -60 -115 -207 -139 -293 -14 -52 -18 -118 -21 -327 -3 -145
-7 -263 -10 -263 -3 0 -30 23 -61 51 -85 78 -183 143 -306 204 -465 229 -956
201 -1375 -79 -319 -213 -536 -538 -626 -936 -23 -101 -33 -611 -15 -745 59
-435 374 -767 809 -849 122 -23 2222 -24 2355 -1 217 38 394 133 552 297 111
116 178 228 227 383 47 150 48 176 45 1235 l-3 995 -28 80 c-35 97 -74 173
-127 243 l-40 52 0 261 c0 278 -4 304 -53 358 -95 103 -286 67 -334 -62 -6
-18 -12 -90 -12 -166 -1 -120 -3 -132 -18 -127 -9 4 -49 11 -89 17 -69 11
-155 5 -261 -17 l-33 -6 0 133 c0 109 -4 142 -19 174 -46 100 -164 143 -268
96z m565 -796 c34 -8 81 -24 104 -36 68 -35 145 -115 180 -188 31 -63 32 -72
36 -213 l4 -148 -401 0 -401 0 0 118 c0 64 5 137 11 161 25 108 112 227 202
273 97 49 161 57 265 33z m-1685 -826 c244 -49 452 -178 596 -369 138 -184
189 -333 214 -630 9 -100 70 -165 165 -177 100 -11 189 37 218 119 9 24 13
154 13 456 l1 422 400 0 400 0 0 -632 c0 -531 -3 -643 -15 -697 -51 -214 -233
-390 -450 -436 -104 -22 -2166 -22 -2270 0 -224 47 -404 228 -451 455 -12 61
-15 129 -12 355 4 264 6 285 31 378 106 394 395 681 768 762 99 21 273 19 392
-6z"/>
<path d="M1281 2170 c-376 -80 -653 -404 -678 -792 -6 -91 -4 -100 21 -152 22
-46 35 -59 78 -80 144 -72 297 20 298 179 0 164 110 343 252 414 75 38 133 47
211 31 191 -37 316 -176 336 -372 9 -91 33 -148 74 -178 108 -77 270 -34 314
83 26 71 6 239 -42 362 -59 151 -195 314 -329 394 -66 39 -150 74 -232 96 -72
19 -243 28 -303 15z"/>
</g>
</svg>
